<svg width="43" height="43" viewBox="0 0 43 43" fill="none" xmlns="http://www.w3.org/2000/svg">
<path d="M21.0265 13.6404C20.3727 13.6404 19.8216 13.4349 19.3732 13.0239C18.9436 12.5942 18.7287 12.0711 18.7287 11.4547C18.7287 10.8382 18.9436 10.3244 19.3732 9.91345C19.8216 9.50246 20.3727 9.29697 21.0265 9.29697C21.6991 9.29697 22.2501 9.50246 22.6798 9.91345C23.1282 10.3244 23.3523 10.8382 23.3523 11.4547C23.3523 12.0711 23.1282 12.5942 22.6798 13.0239C22.2501 13.4349 21.6991 13.6404 21.0265 13.6404ZM15.4501 29.6689V27.0909H19.8216V19.2728C19.8216 18.6563 19.5227 18.3481 18.9249 18.3481H15.8425V15.77H19.4573C20.6155 15.77 21.4562 16.0409 21.9793 16.5827C22.521 17.1058 22.7919 17.9464 22.7919 19.1047V27.0909H27.1633V29.6689H15.4501Z" fill="#BFFFC2"/>
<circle cx="21.3013" cy="21.1689" r="20" stroke="#BFFFC2" stroke-width="2"/>
</svg>
