<?xml version="1.0" encoding="utf-8"?>
<!-- Generator: Adobe Illustrator 27.7.0, SVG Export Plug-In . SVG Version: 6.00 Build 0)  -->
<svg version="1.1" id="Layer_1" xmlns="http://www.w3.org/2000/svg" xmlns:xlink="http://www.w3.org/1999/xlink" x="0px" y="0px"
	 viewBox="0 0 43 43" style="enable-background:new 0 0 43 43;" xml:space="preserve">
<style type="text/css">
	.st0{fill:none;stroke:#234E44;stroke-width:2;}
	.st1{fill:#234E44;}
</style>
<circle class="st0" cx="21.8" cy="21.2" r="20"/>
<path class="st1" d="M21.7,24.9l-2.6,7.2c-0.1,0.4-0.4,0.7-0.8,0.8c-0.7,0.3-1.6,0-1.9-0.7c-0.2-0.3-0.2-0.8,0-1.1l1.8-5
	c0.1-0.4,0.3-0.8,0.3-1.2c0.1-0.4,0.1-0.8,0.2-1.2c0.1-0.7,0.1-1.5,0.2-2.3c0-0.8,0.1-1.5,0.1-2.1c0-0.8-0.2-0.8-0.8-1l-0.1,0
	l-5.2-1c-0.4-0.1-0.7-0.3-0.9-0.6c-0.5-0.7-0.3-1.6,0.4-2c0.3-0.2,0.7-0.3,1.1-0.2l5.6,1.1c0.2,0,0.4,0,0.7,0.1
	c0.7,0.1,1.4,0.1,2.1,0.2c0.9,0,1.7-0.1,2.6-0.2c0.3,0,0.5-0.1,0.8-0.1l5.3-1c0.4-0.1,0.8,0,1.1,0.2c0.7,0.5,0.8,1.4,0.4,2
	c0,0,0,0,0,0c-0.2,0.3-0.6,0.5-0.9,0.6l-5.1,1c-0.2,0-0.3,0.1-0.5,0.1c-0.5,0.1-0.8,0.1-0.8,0.9c0,0.6,0.1,1.2,0.2,1.9
	c0.1,0.8,0.2,1.7,0.4,2.4c0.1,0.5,0.2,0.9,0.3,1.3c0.1,0.4,0.2,0.8,0.4,1.3l1.8,4.9c0.3,0.8-0.1,1.6-0.9,1.9c-0.4,0.1-0.8,0.1-1.1,0
	c-0.4-0.2-0.6-0.5-0.8-0.8l-2.6-7.2L22,24.4L21.7,24.9L21.7,24.9z M21.8,9.3c1.4,0,2.6,1.2,2.6,2.6c0,1.4-1.2,2.6-2.6,2.6
	c-1.4,0-2.6-1.2-2.6-2.6c0-0.7,0.3-1.3,0.8-1.8C20.5,9.6,21.1,9.3,21.8,9.3z"/>
</svg>
