<svg width="548" height="336" viewBox="0 0 548 336" fill="none" xmlns="http://www.w3.org/2000/svg">
<g clip-path="url(#clip0_869_65)">
<path d="M425.539 195.182C425.539 195.182 443.178 186.879 433.077 179.455C422.976 172.031 410.727 162.212 396.265 164.497C381.804 166.781 370.388 166.561 366.838 172.404C363.289 178.247 360.615 183.54 362.719 186.264C364.822 188.988 369.051 193.798 372.689 193.073C376.348 192.348 377.969 188.526 382.089 186.264C386.208 184.002 395.301 180.531 403.058 184.243C410.815 187.955 413.072 188.57 415.044 190.547C417.016 192.524 419.886 194.589 425.517 195.16L425.539 195.182Z" fill="#224E43"/>
<path d="M542.109 294.64C542.656 290.554 547.061 280.999 546.841 277.002C546.622 273.004 548.178 271.708 543.379 267.403C538.581 263.098 532.248 262.527 532.533 257.892C532.818 253.279 526.113 243.659 520.964 239.969C515.793 236.278 504.596 226.109 497.256 222.792C492.391 220.595 485.818 219.431 480.362 219.277C480.537 216.027 477.842 214.687 476.155 214.687C474.227 214.687 472.298 212.468 470.83 213.303C469.888 213.83 470.37 217.784 470.83 220.595C467.237 222.155 465.287 224.615 459.042 223.714C451.526 222.66 436.035 215.631 430.732 210.316C425.43 205 421.683 207.504 416.205 204.122C410.727 200.717 405.381 195.072 398.807 194.786C392.234 194.501 383.359 200.629 379.634 200.827C375.909 201.024 372.535 201.156 370.695 197.686C368.854 194.215 366.203 192.634 362.083 192.634C357.964 192.634 350.974 198.037 347.797 202.123C344.62 206.186 340.369 207.702 333.467 204.122C326.565 200.541 321.613 196.544 317.603 193.952C313.593 191.36 307.655 191.272 306.077 188.219C304.5 185.166 308.225 186.088 306.625 183.408C305.026 180.729 303.054 177.236 303.054 170.844C303.054 164.453 304.324 157.314 297.97 151.735C291.616 146.156 290.235 146.09 286.423 146.09C286.423 146.09 283.947 140.181 273.78 138.424C263.613 136.689 259.603 136.249 253.029 136.249C246.456 136.249 244.243 134.492 239.203 139.061C234.142 143.63 229.234 152.657 226.254 160.784C223.274 168.911 220.491 170.647 210.455 169.834C200.42 169.021 187.492 164.958 179.933 156.106C172.373 147.254 170.204 146.156 169.064 140.972C167.925 135.788 161.352 129.286 156.816 126.299C152.28 123.312 148.424 119.556 143.34 120.478C138.279 121.401 141.39 117.667 137.402 116.986C133.414 116.305 132.253 117.535 128.462 117.535C124.672 117.535 125.526 116.591 119.873 113.845C114.22 111.099 116.323 108.398 113.891 107.453C111.459 106.487 110.407 107.585 110.122 103.807C109.837 100.029 111.262 96.0752 112.971 95.0868C114.68 94.0984 119.347 95.0868 124.211 95.0868C129.076 95.0868 132.91 92.0776 132.91 89.5736C132.91 87.0695 131.793 86.5424 134.488 82.7644C137.183 78.9644 135.89 77.0754 135.89 73.9783C135.89 70.8813 137.972 68.6628 136.526 64.775C135.08 60.8871 133.962 60.6236 133.173 57.834C132.363 55.0225 132.735 53.419 130.785 53.9023C128.835 54.3855 128.462 55.1982 124.693 55.7254C120.925 56.2525 119.522 54.671 116.564 57.6144C113.628 60.5577 109.553 59.0201 109.553 63.2374C109.553 67.4547 110.561 65.9611 106.967 69.2778C103.352 72.5945 100.284 73.4073 98.9036 77.9101C97.5232 82.4129 101.993 88.7609 104.36 89.9909C106.748 91.2209 109.618 94.2082 107.449 95.4602C105.258 96.7342 102.826 99.6555 97.6327 95.3284C92.4397 90.9793 88.0135 84.8291 89.0872 81.2268C90.1609 77.6246 93.36 71.1668 97.5013 65.7195C101.643 60.2721 107.515 54.8467 107.515 54.8467C107.515 54.8467 108.282 51.3763 113.19 49.5092C118.098 47.6422 122.13 46.6098 124.036 46.9832C125.942 47.3567 123.949 43.337 115.556 44.8087C107.186 46.2804 100.635 51.9034 97.7642 53.8583C94.8938 55.8352 86.414 60.3161 86.414 60.3161L78.9202 60.9091C78.9202 60.9091 60.2078 51.8595 53.722 44.8307C47.2142 37.8018 38.6468 27.3465 32.2048 21.5696C25.8286 15.7709 10.9506 2.13053 6.43683 0.505117C1.94496 -1.14227 -0.772071 1.44962 1.28762 6.3039C3.32539 11.1802 -0.158547 17.9234 6.34918 25.128C12.8569 32.3106 21.4024 38.1094 25.5437 45.5336C29.6631 52.9578 36.5214 57.6802 41.9993 61.1727C47.4553 64.6651 50.1504 65.9391 51.8157 69.4096C53.4809 72.8801 52.3854 72.6385 55.935 77.2292C59.4847 81.8199 66.9785 84.873 69.8489 91.0672C72.7193 97.2833 98.2243 127.266 102.125 138.27C106.025 149.275 106.31 147.561 106.77 152.02C107.208 156.457 110.802 154.854 109.202 161.421C107.602 168.011 103.352 169.79 101.927 178.225C100.481 186.659 98.1148 184.199 99.1884 191.931C100.262 199.663 97.8518 198.213 98.3996 202.167C98.9474 206.12 103.768 216.686 109.969 219.783C116.192 222.88 132.384 222.704 138.717 219.585C145.049 216.488 147.087 220.595 150.001 222.924C152.916 225.274 161.198 227.844 167.268 229.513C173.337 231.204 180.195 229.689 185.038 230.304C189.88 230.919 194.898 235.4 202.217 236.652C209.535 237.904 211.244 232.874 217.818 234.477C224.391 236.081 231.052 239.705 236.859 240.188C242.665 240.671 257.916 250.292 265.804 251.786C273.692 253.279 277.001 247.546 282.435 247.546C287.869 247.546 290.213 253.345 295.691 252.73C301.169 252.115 318.633 238.673 325.666 233.555C332.7 228.437 331.867 225.208 336.381 223.099C340.895 220.991 341.267 215.455 348.41 216.136C355.554 216.817 360.571 217.718 363.836 223.539C367.079 229.359 380.007 231.468 386.778 238.233C393.548 244.999 409.653 257.255 411.494 263.998C413.356 270.742 413.006 276.606 410.376 282.625C407.747 288.643 402.948 288.951 400.516 294.464C398.106 299.977 395.761 309.159 397.054 312.146C398.347 315.133 404.701 314.408 409.434 312.893C414.167 311.377 415.197 313.661 422.384 315.243C429.571 316.824 433.23 313.2 437.985 315.506C442.718 317.835 440.001 324.095 443.813 325.742C447.648 327.39 475.585 335.209 481.742 335.209C487.899 335.209 497.738 337.274 503.72 334.66C509.701 332.046 520.066 326.225 523.462 323.414C526.836 320.602 536.872 314.32 541.517 311.816C546.162 309.312 547.477 308.06 547.63 305.688C547.784 303.316 541.605 298.725 542.152 294.64H542.109Z" fill="#224E43"/>
</g>
<defs>
<clipPath id="clip0_869_65">
<rect width="547" height="336" fill="white" transform="translate(0.586914)"/>
</clipPath>
</defs>
</svg>
