<svg width="46" height="47" viewBox="0 0 46 47" fill="none" xmlns="http://www.w3.org/2000/svg">
<path fill-rule="evenodd" clip-rule="evenodd" d="M46 23.188C46 35.8905 35.7025 46.188 23 46.188C10.2975 46.188 0 35.8905 0 23.188C0 10.4854 10.2975 0.187988 23 0.187988C35.7025 0.187988 46 10.4854 46 23.188ZM1.76953 23.1878C1.76953 34.9132 11.2749 44.4186 23.0003 44.4186V1.95703C11.2749 1.95703 1.76953 11.4624 1.76953 23.1878ZM23.0005 30.8176L23.0005 35.111L42.7443 15.3672C42.3471 14.3654 41.8759 13.401 41.3373 12.4808L23.0005 30.8176ZM23.0005 44.4191V40.7678L43.9632 19.8051C44.1396 20.9068 44.2313 22.0369 44.2313 23.1883C44.2313 23.4064 44.228 23.6237 44.2214 23.8402L23.6524 44.4092C23.4359 44.4158 23.2186 44.4191 23.0005 44.4191ZM30.7635 42.955C36.2446 40.8007 40.6129 36.4324 42.7672 30.9513L30.7635 42.955ZM38.9669 9.19433C38.2989 8.43274 37.5772 7.71936 36.8078 7.06007L23.0005 20.8674V25.1608L38.9669 9.19433ZM30.5708 3.34693C31.5823 3.73308 32.5567 4.19436 33.4871 4.72394L23.0005 15.2106L23.0005 10.9172L30.5708 3.34693ZM26.0814 2.17944C25.0756 2.03322 24.0469 1.95752 23.0005 1.95752V5.26037L26.0814 2.17944Z" fill="#224E43"/>
</svg>
