<?xml version="1.0" encoding="utf-8"?>
<!-- Generator: Adobe Illustrator 27.7.0, SVG Export Plug-In . SVG Version: 6.00 Build 0)  -->
<svg version="1.1" id="Layer_1" xmlns="http://www.w3.org/2000/svg" xmlns:xlink="http://www.w3.org/1999/xlink" x="0px" y="0px"
	 viewBox="0 0 98 85" style="enable-background:new 0 0 98 85;" xml:space="preserve">
<style type="text/css">
	.st0{fill:none;}
	.st1{fill:#234E44;}
</style>
<rect x="0.7" y="1" class="st0" width="96.7" height="83.6"/>
<g>
	<path class="st1" d="M49.2,36.8c0.3-0.3,0.6-0.6,0.8-0.8c0.9-0.9,1.7-1.7,2.6-2.6c1.4-1.4,2.9-2.9,4.3-4.3c0.3-0.3,0.6-0.6,0.9-1
		c0.3-0.3,0.6-0.5,0.8-0.8c0.6-0.6,1.2-1.2,1.8-1.8c0.1-0.1,0.2-0.2,0.4-0.2c7.7,0,15.4,0,23,0c0.1,0,0.2,0,0.3,0
		c-0.2,0.2-0.3,0.4-0.5,0.5c-0.4,0.3-0.7,0.7-1.1,1.1c-0.5,0.5-1.1,1.1-1.6,1.6c-0.6,0.5-1.1,1.1-1.7,1.6c-0.4,0.4-0.9,0.9-1.3,1.3
		c-0.5,0.5-1,1-1.4,1.5c-0.6,0.6-1.2,1.2-1.7,1.8c-0.3,0.3-0.6,0.6-0.9,0.9c-0.3,0.3-0.7,0.7-1,1c-0.2,0.2-0.3,0.2-0.6,0.2
		c-7.6,0-15.1,0-22.7,0C49.6,36.9,49.4,36.8,49.2,36.8"/>
	<path class="st1" d="M49.3,37.8c0.3,0,0.7,0,1,0h22.2c0.1,0.3,0.1,23,0,23.3c-0.2-0.2-0.3-0.3-0.5-0.5c-2.7-2.7-5.3-5.3-8-8
		c-4.8-4.8-9.6-9.6-14.5-14.5C49.4,38.1,49.3,38,49.3,37.8C49.2,37.9,49.2,37.9,49.3,37.8"/>
	<path class="st1" d="M24.2,12.8h23.2c0.1,0.2,0.1,22.8,0,23.2c0,0,0,0,0,0c0,0,0,0,0,0C39.7,28.3,31.9,20.6,24.2,12.8"/>
	<path class="st1" d="M46.6,36.8C46.6,36.8,46.6,36.8,46.6,36.8c-7.8,0-15.5,0-23.2,0c0,0,0,0,0,0c0,0,0,0,0,0c0-7.7,0-15.3,0-23
		v-0.2C31.1,21.3,38.9,29.1,46.6,36.8"/>
	<path class="st1" d="M48.4,61.9c0-7.7,0-15.4,0-23.2c0,0,0-0.1,0-0.1c0.2,0.1,22.9,22.8,23.3,23.2H48.4L48.4,61.9z"/>
	<path class="st1" d="M73.5,61.2c0-0.4,0-0.7,0-1c0-6.8,0-13.5,0-20.3c0-0.7,0-1.4,0-2.1c0-0.2,0.1-0.4,0.2-0.5
		c1.8-1.8,3.7-3.7,5.5-5.5c1.8-1.9,3.7-3.7,5.5-5.5c0.1-0.1,0.2-0.2,0.3-0.3c0,7.8,0,15.5,0,23.2c0,0.4-0.1,0.6-0.3,0.8
		c-3.6,3.6-7.3,7.2-10.9,10.9C73.7,61,73.6,61.1,73.5,61.2z"/>
	<path class="st1" d="M59.8,24.8c-3.8,3.8-7.5,7.5-11.3,11.3c-0.1-0.2-0.1-22,0-22.5c0,0,0,0,0,0c0,0,0,0,0,0
		c3.7,3.7,7.5,7.4,11.2,11.2C59.7,24.7,59.7,24.8,59.8,24.8z"/>
	<path class="st1" d="M86.2,1.1c0.6,0.6,1.2,1.2,1.8,1.8c3.1,3.1,6.1,6.1,9.2,9.2c0.1,0.1,0.1,0.1,0.2,0.2
		c-3.8,3.8-7.5,7.5-11.3,11.3v-0.4c0-7.3,0-14.6,0-21.9c0-0.1,0-0.1,0-0.2L86.2,1.1L86.2,1.1z"/>
	<path class="st1" d="M47.5,38.7c0,7.4,0,14.8,0,22.3c0,0,0,0.1,0,0.2c-0.1-0.1-0.1-0.1-0.2-0.1c-1.1-1.1-2.1-2.1-3.2-3.2
		c-0.8-0.8-1.6-1.5-2.3-2.3c-0.9-0.9-1.8-1.8-2.7-2.8c-0.9-0.9-1.7-1.8-2.6-2.6c-0.1-0.1-0.1-0.1-0.2-0.2
		C39.9,46.1,43.6,42.4,47.5,38.7C47.4,38.6,47.4,38.6,47.5,38.7z"/>
	<path class="st1" d="M24.2,37.8c0.2,0,0.4,0,0.6,0c7.2,0,14.4,0,21.6,0h0.2c0,0.1-0.1,0.2-0.1,0.2c-2.1,2.1-4.2,4.2-6.3,6.4
		c-1.5,1.5-3,3-4.5,4.4c-0.1,0.1-0.2,0.2-0.3,0.3c-0.4-0.4-0.8-0.8-1.2-1.2c-0.7-0.7-1.3-1.3-2-2c-0.5-0.5-0.9-0.9-1.4-1.4
		c-0.8-0.8-1.7-1.7-2.5-2.5c-0.7-0.7-1.3-1.4-2-2c-0.7-0.7-1.4-1.4-2.1-2C24.2,38,24.2,38,24.2,37.8C24.2,37.9,24.2,37.9,24.2,37.8"
		/>
	<path class="st1" d="M86.1,48.5c0-0.2,0-0.4,0-0.6V26.5c0-0.1,0-0.2,0-0.4c0,0,0.1,0,0.1,0c1.6,1.6,3.2,3.2,4.7,4.7
		c2.1,2.1,4.2,4.2,6.2,6.2c0.1,0.1,0.1,0.2,0.2,0.2c-0.1,0.1-0.1,0.2-0.2,0.2c-3.6,3.6-7.2,7.2-10.8,10.8c0,0-0.1,0.1-0.1,0.1
		C86.2,48.5,86.1,48.5,86.1,48.5"/>
	<path class="st1" d="M60.5,74.2c-3.8-3.8-7.5-7.5-11.2-11.2h22.5c0,0,0,0,0,0c0,0,0,0,0,0C68,66.7,64.2,70.5,60.5,74.2"/>
	<path class="st1" d="M22.4,13.7c0,0.1,0,0.2,0,0.3v22c-0.3-0.2-10.6-10.5-11.3-11.3c0,0,0.1-0.1,0.1-0.1c3.7-3.7,7.3-7.3,11-11
		C22.2,13.6,22.2,13.6,22.4,13.7C22.3,13.6,22.3,13.7,22.4,13.7z"/>
	<path class="st1" d="M84.3,24.3H61.8c3.7-3.7,7.5-7.5,11.2-11.2c0,0,0.1,0.1,0.2,0.1c0.4,0.4,0.8,0.8,1.2,1.2
		c0.3,0.3,0.6,0.5,0.9,0.8c0.2,0.2,0.5,0.5,0.7,0.7c0.3,0.3,0.6,0.6,0.9,0.9c0.2,0.2,0.5,0.5,0.7,0.7c0.3,0.3,0.6,0.6,0.9,0.9
		c0.1,0.1,0.2,0.3,0.4,0.4c0.4,0.4,0.9,0.9,1.3,1.3c0.3,0.2,0.5,0.5,0.7,0.8c0.5,0.5,1,0.9,1.4,1.4c0.3,0.3,0.6,0.7,0.9,1
		S84,23.9,84.3,24.3"/>
	<path class="st1" d="M85.1,23.5c-3.8-3.8-7.5-7.5-11.3-11.3C77.5,8.5,81.3,4.7,85.1,1V23.5L85.1,23.5z"/>
	<path class="st1" d="M21.4,42.1c0.8-0.3,1.7-0.6,2.5-0.9c0.1,0,0.2-0.1,0.3,0.1c-0.2,0.6-0.5,1.2-0.7,1.8c-0.1,0.3-0.2,0.6-0.3,0.9
		c0,0-0.1,0-0.1,0.1c0,0,0,0,0,0c0,0,0.1,0,0.1,0c0.4-0.2,0.8-0.4,1.2-0.6c0.4-0.2,0.8-0.4,1.3-0.5c0.2,0.2,0.4,0.5,0.7,0.7
		c-0.8,0.4-1.6,0.7-2.4,1.1c-0.8,0.4-1.6,0.7-2.4,1.1c0.1-0.6,0.4-1.1,0.5-1.6c0.2-0.5,0.4-1,0.6-1.6c-0.5,0.2-1,0.4-1.6,0.5
		c-0.5,0.2-1,0.4-1.6,0.5c0.8-1.7,1.5-3.2,2.2-4.8c0.3,0.3,0.5,0.5,0.8,0.8C22.1,40.4,21.7,41.2,21.4,42.1L21.4,42.1
		C21.3,42.1,21.3,42.1,21.4,42.1z"/>
	<path class="st1" d="M45.9,76.7c0.5-0.2,1-0.4,1.6-0.6c0.3-0.1,0.6-0.2,0.9-0.3c0.1,0,0.2,0,0.3,0c0,0.1,0,0.2,0,0.3
		c-0.3,0.8-0.6,1.6-0.9,2.4c0,0,0,0.1,0,0.1c0,0,0.1,0,0.1,0c0.8-0.4,1.6-0.8,2.4-1.2c0.2,0.2,0.5,0.5,0.7,0.7
		c-0.4,0.3-4.5,2.2-4.8,2.2c0.1-0.5,0.3-1,0.5-1.5c0.2-0.5,0.4-1,0.6-1.5c0,0,0-0.1,0-0.1c0,0,0,0-0.1,0c-0.3,0.1-0.5,0.2-0.8,0.3
		c-0.6,0.2-1.3,0.5-1.9,0.7c-0.1,0-0.2,0-0.3,0c0-0.2,0-0.3,0.1-0.4c0.3-0.6,0.5-1.2,0.8-1.8c0.4-0.9,0.8-1.7,1.2-2.6
		c0.2,0.1,0.3,0.2,0.4,0.4c0.1,0.1,0.3,0.2,0.4,0.4c-0.2,0.3-0.4,0.7-0.5,1C46.3,75.6,46.1,76.1,45.9,76.7
		C45.8,76.6,45.8,76.6,45.9,76.7C45.9,76.7,45.9,76.7,45.9,76.7"/>
	<path class="st1" d="M21.1,50.9c0.2,0.2,0.4,0.4,0.6,0.6c0.2,0.2,0.4,0.2,0.6,0.1c0.3-0.2,0.4-0.5,0.2-0.8
		c-0.2-0.2-0.4-0.4-0.6-0.6C21.6,50.5,21.3,50.7,21.1,50.9z M19.6,52.4c0.2,0.2,0.4,0.4,0.6,0.6c0,0,0.1,0.1,0.1,0.1
		c0.2,0.2,0.6,0.2,0.8,0c0.2-0.2,0.2-0.5,0-0.8c-0.2-0.2-0.5-0.5-0.7-0.7C20.2,51.8,19.9,52.1,19.6,52.4 M22,52.4
		c0.4,0.8-0.1,1.4-0.6,1.7c-0.1,0-0.2,0.1-0.3,0.1c-0.1,0-0.1,0-0.2,0c-0.5,0.1-0.8-0.2-1.2-0.5c-0.5-0.5-1-0.9-1.5-1.5
		c1.2-1.2,2.3-2.3,3.5-3.5c0.1,0.1,0.1,0.1,0.2,0.2c0.4,0.4,0.8,0.8,1.1,1.1c0.4,0.3,0.5,0.8,0.5,1.3c0,0.5-0.6,1.1-1,1
		C22.4,52.4,22.2,52.4,22,52.4z"/>
	<path class="st1" d="M37,56.8c0.2,0.2,0.4,0.4,0.5,0.5c0.1,0.1,0.2,0.1,0.2,0.2c0.2,0.1,0.4,0,0.6-0.2c0.2-0.2,0.2-0.4,0-0.6
		c-0.2-0.2-0.4-0.5-0.6-0.6C37.5,56.4,37.2,56.6,37,56.8 M35.5,58.3c0.2,0.2,0.4,0.4,0.6,0.6c0.3,0.3,0.6,0.2,0.8,0
		c0.2-0.2,0.2-0.6,0-0.8c-0.2-0.2-0.4-0.4-0.7-0.7C36.1,57.7,35.8,58,35.5,58.3 M34.2,58.2c1.1-1.1,2.3-2.3,3.4-3.4
		c0.1,0.1,0.2,0.2,0.4,0.4c0.3,0.3,0.6,0.6,0.9,0.9c0.1,0.1,0.2,0.2,0.3,0.4c0.3,0.4,0.3,1.3-0.1,1.7c-0.2,0.2-0.5,0.3-0.8,0.3
		c-0.1,0-0.2,0-0.3,0c0.5,0.9-0.4,1.7-1.1,1.8c-0.5,0-0.9-0.1-1.2-0.5c-0.4-0.4-0.8-0.8-1.2-1.2C34.3,58.4,34.3,58.3,34.2,58.2"/>
	<path class="st1" d="M10.8,29.7c0-0.2,0-0.5-0.2-0.7c-0.5-0.8-1.4-0.9-2.1-0.4c-0.4,0.2-0.6,0.6-0.7,1c-0.1,0.3-0.1,0.5,0,0.8
		c0.1,0.4,0.3,0.6,0.6,0.8c0.1,0.1,0.2,0.2,0.4,0.2c0.3,0.1,0.7,0,1-0.1C10.2,31.1,10.9,30.4,10.8,29.7 M9.2,32.3
		c-0.6,0.1-1.1-0.2-1.6-0.6C7.2,31.5,7,31,6.8,30.5c-0.1-0.2-0.2-0.4-0.1-0.7c0.1-1.1,0.8-2.1,2-2.4c0.6,0,1.1-0.1,1.7,0.2
		c0.5,0.3,1,0.7,1.2,1.2c0.2,0.6,0.4,1.1,0.1,1.8c-0.1,0.3-0.2,0.6-0.4,0.8C10.8,32,10.1,32.5,9.2,32.3"/>
	<path class="st1" d="M35.4,64.3c0-0.2,0-0.3-0.1-0.5c-0.2-0.8-1.1-1.2-2-0.8c-0.5,0.2-0.9,0.7-1,1.2c-0.2,0.7,0.3,1.5,1,1.7
		C34.3,66.2,35.4,65.4,35.4,64.3 M33.8,61.9c0.6-0.1,1,0.1,1.5,0.5c0.5,0.3,0.8,0.8,1,1.3c0,0.2,0,0.4,0.1,0.6
		c0.1,1-0.4,1.7-1.2,2.3c-0.4,0.2-0.8,0.3-1.2,0.3c-0.7,0-1.3-0.2-1.8-0.7c-0.4-0.4-0.6-0.8-0.8-1.3c-0.2-0.5,0-1,0.2-1.5
		c0.3-0.7,0.9-1.2,1.6-1.4C33.4,61.9,33.6,61.9,33.8,61.9"/>
	<path class="st1" d="M6.9,37.3c0.3,0.2,0.5,0.5,0.8,0.7c0.3,0.2,0.6,0.2,0.9-0.1c0.2-0.2,0.3-0.6,0.1-0.8c-0.2-0.3-0.5-0.5-0.7-0.7
		C7.6,36.7,7.2,37,6.9,37.3 M7.8,34.9c0.5,0.5,1,1,1.5,1.5c0.4,0.4,0.5,1,0.4,1.5c0,0.1-0.1,0.3-0.2,0.4c-0.3,0.5-0.7,0.8-1.2,0.9
		c-0.1,0-0.3,0-0.4,0c-0.1,0-0.2,0-0.3-0.1c-0.1,0.1-0.1,0.3-0.1,0.4c0,0.2-0.1,0.4-0.1,0.6c-0.1,0.3-0.2,0.6-0.3,1
		c-0.3-0.3-0.6-0.5-0.8-0.8c0.2-0.6,0.3-1.2,0.5-1.9c-0.1-0.1-0.2-0.2-0.3-0.3c-0.2-0.1-0.2-0.1-0.3,0c-0.3,0.3-0.5,0.5-0.8,0.8
		c-0.1,0.1-0.2,0.1-0.2,0.2c-0.2-0.2-0.5-0.5-0.7-0.8C5.5,37.2,6.6,36.1,7.8,34.9"/>
	<path class="st1" d="M52.3,72.7c0.2,0.2,0.4,0.4,0.6,0.6c0,0,0,0,0,0.1c0.3,0.2,0.6,0.2,0.9-0.1c0.2-0.2,0.3-0.6,0.1-0.9
		c-0.2-0.3-0.4-0.5-0.7-0.7C52.9,72,52.6,72.4,52.3,72.7 M53.1,70.3c0.5,0.5,0.9,0.9,1.3,1.3c0.1,0.1,0.3,0.3,0.4,0.5
		c0.6,1,0.1,2-0.8,2.3c-0.3,0.1-0.7,0.1-1.1,0c-0.2,0.7-0.3,1.4-0.5,2.1c-0.2-0.3-0.5-0.5-0.7-0.7c-0.1-0.1-0.1-0.2-0.1-0.3
		c0.1-0.4,0.2-0.8,0.3-1.2c0.1-0.5,0.1-0.5-0.3-0.9c-0.4,0.4-0.8,0.8-1.1,1.1c-0.2-0.2-0.5-0.5-0.7-0.7C50.8,72.6,52,71.5,53.1,70.3
		"/>
	<path class="st1" d="M34,51.2c0.2,0.2,0.4,0.5,0.7,0.7c0,0-0.1,0.1-0.2,0.2c-0.6,0.7-1.3,1.3-1.9,1.9c-0.1,0.1-0.2,0.2-0.3,0.4
		c-0.1,0.2-0.1,0.5,0,0.7c0.1,0.2,0.3,0.3,0.4,0.5c0.3,0.3,0.7,0.2,0.9-0.1c0.5-0.4,0.9-0.9,1.4-1.3c0.3-0.3,0.6-0.6,0.9-0.9
		c0.2,0.2,0.5,0.5,0.7,0.7c0,0-0.1,0.1-0.2,0.2c-0.7,0.7-1.3,1.3-2,2c-0.3,0.3-0.6,0.4-0.9,0.5c-0.5,0.1-1,0-1.4-0.3
		c-0.6-0.4-0.9-1-1.1-1.6c0-0.1,0-0.2,0-0.3c0.1-0.3,0.2-0.6,0.4-0.9C32.4,52.8,33.2,52,34,51.2"/>
	<path class="st1" d="M18.1,45.3c0.3,0.2,0.5,0.5,0.8,0.7c-0.2,0.2-0.4,0.4-0.6,0.6c-0.5,0.5-1,1-1.5,1.6c-0.1,0.1-0.2,0.2-0.3,0.3
		c-0.2,0.3-0.2,0.6,0,0.8c0.1,0.1,0.2,0.3,0.4,0.4c0.2,0.2,0.7,0.2,1,0c0.1-0.1,0.1-0.1,0.2-0.2c0.6-0.6,1.3-1.3,1.9-1.9
		c0.1-0.1,0.1-0.2,0.2-0.3c0.2,0.2,0.3,0.3,0.4,0.4c0.1,0.1,0.2,0.2,0.4,0.4c-0.4,0.4-0.9,0.9-1.3,1.3c-0.2,0.2-0.5,0.5-0.7,0.7
		c-0.1,0.1-0.2,0.2-0.3,0.3c-0.2,0.2-0.5,0.3-0.8,0.4c-0.7,0.2-1.2-0.1-1.6-0.5c-0.4-0.3-0.6-0.7-0.8-1.2c-0.1-0.4,0-0.7,0.2-1
		c0.1-0.2,0.2-0.4,0.3-0.5C16.6,46.7,17.3,46,18.1,45.3z"/>
	<path class="st1" d="M14.2,44.6c0.2,0.2,0.3,0.4,0.5,0.5c0.3,0.3,0.7,0.3,1,0c0.3-0.3,0.4-0.7,0.1-1c-0.2-0.2-0.4-0.4-0.6-0.5
		C14.9,43.9,14.5,44.3,14.2,44.6z M12.4,46.4c-0.3-0.3-0.5-0.5-0.8-0.7c1.2-1.2,2.3-2.3,3.5-3.5c0,0,0.1,0.1,0.2,0.1
		c0.4,0.4,0.7,0.7,1,1c0.3,0.3,0.4,0.6,0.6,0.9c0.1,0.3,0.1,0.6,0,0.8c-0.2,0.8-1,1.3-1.8,1.2c-0.4,0-0.7-0.2-1-0.5
		c-0.1-0.1-0.3-0.3-0.4-0.4c-0.1-0.1-0.1-0.1-0.2-0.2C13.1,45.7,12.8,46,12.4,46.4"/>
	<path class="st1" d="M31.1,49.5c-0.4,0.4-0.7,0.7-1.1,1.1c0.2,0.2,0.4,0.4,0.6,0.5c0.1,0.1,0.1,0.1,0.2,0.1c0.1,0,0.2,0.1,0.2,0.1
		c0.3-0.1,0.6-0.2,0.7-0.5c0.1-0.3,0-0.5-0.2-0.8C31.4,49.8,31.3,49.7,31.1,49.5 M31,48.1c0.5,0.5,1,1,1.4,1.5
		c0.4,0.4,0.5,1,0.3,1.6c-0.2,0.5-0.5,0.8-1,1c-0.4,0.2-0.8,0.2-1.2,0c-0.2-0.1-0.5-0.3-0.7-0.5c-0.2-0.1-0.3-0.3-0.5-0.5
		c-0.4,0.4-0.7,0.7-1.1,1.1c-0.2-0.2-0.5-0.5-0.7-0.7C28.7,50.4,29.8,49.3,31,48.1"/>
	<path class="st1" d="M31.6,60c-0.3-0.1-0.6-0.1-0.8-0.1c-0.1,0-0.2-0.1-0.2-0.2c0-0.1,0-0.1,0-0.2c0-0.6-0.4-1.1-1-1.2
		c-0.5-0.1-0.9-0.1-1.3,0.2c-0.4,0.3-0.7,0.8-0.8,1.2c-0.1,0.3,0.1,0.6,0.2,0.8c0.3,0.4,0.7,0.7,1.2,0.7c0.1,0,0.2,0,0.4,0
		c0.1,0.3,0.2,0.6,0.2,1c-0.3,0-0.7,0-1,0c-0.3,0-0.5-0.2-0.7-0.3c-0.7-0.4-1.1-1-1.2-1.8c-0.1-0.8,0.1-1.4,0.7-2
		c0.6-0.6,1.3-0.9,2.2-0.8c1,0.2,1.7,0.7,2.1,1.7c0,0,0,0,0,0C31.5,59.2,31.5,59.6,31.6,60"/>
	<path class="st1" d="M47.4,65.9c-0.3,0-0.6-0.1-0.9-0.2c0.1-0.6-0.1-1.1-0.6-1.5c-0.5-0.3-1-0.3-1.5,0c-0.6,0.4-0.9,0.8-0.9,1.5
		c0,0.2,0,0.3,0.1,0.5c0.2,0.4,0.5,0.7,0.9,0.8c0.2,0.1,0.4,0,0.5,0c0.2,0,0.2,0,0.3,0.2c0,0.2,0.1,0.4,0.1,0.6
		c-0.7,0.2-1.3,0-1.9-0.4c-0.6-0.4-1-1.1-1.1-1.8c-0.1-0.4,0.1-0.9,0.2-1.3c0.2-0.5,0.6-0.9,1.2-1.2c0.3-0.2,0.6-0.3,1-0.2
		c0.1,0,0.2,0,0.4,0c0.4,0,0.7,0.1,1,0.2c0.5,0.3,0.9,0.7,1.2,1.2c0.2,0.3,0.2,0.7,0.2,1.1C47.5,65.7,47.4,65.8,47.4,65.9"/>
	<path class="st1" d="M25.8,47.7c0.1-0.3,0.2-0.5,0.3-0.7c0.1-0.2,0.2-0.4,0.3-0.7c-0.5,0.2-0.9,0.4-1.3,0.6
		C25.3,47.1,25.6,47.4,25.8,47.7 M23.5,47.5c-0.2-0.2-0.5-0.5-0.7-0.7c1.7-0.7,3.3-1.3,5-1.9c0,0,0.1,0,0.1,0
		c-0.6,1.7-1.3,3.4-1.9,5.1c-0.3-0.3-0.5-0.5-0.8-0.7c0.1-0.2,0.2-0.4,0.3-0.7c-0.2-0.2-0.3-0.3-0.5-0.5c-0.2-0.2-0.4-0.4-0.6-0.6
		c-0.1-0.1-0.2-0.1-0.3-0.1C23.8,47.4,23.7,47.5,23.5,47.5"/>
	<path class="st1" d="M49.1,71c0.1-0.2,0.2-0.5,0.3-0.7c0.1-0.2,0.2-0.4,0.3-0.7c-0.5,0.2-1,0.4-1.4,0.6
		C48.6,70.5,48.8,70.7,49.1,71z M48.7,71.9c-0.4-0.4-0.8-0.8-1.1-1.1c-0.1-0.1-0.3-0.2-0.4-0.1c-0.1,0.1-0.2,0.1-0.4,0.2
		c-0.2-0.2-0.4-0.5-0.6-0.7c0,0,0.1-0.1,0.2-0.1c0.8-0.3,1.6-0.6,2.3-0.9c0.8-0.3,1.5-0.6,2.3-0.9c0,0,0,0,0.1,0c0,0.1,0,0.2,0,0.3
		c0,0.1,0,0.1-0.1,0.2c-0.3,0.9-0.7,1.8-1,2.6c-0.2,0.6-0.5,1.2-0.7,1.8c0,0,0,0.1-0.1,0.2c-0.2-0.2-0.5-0.5-0.8-0.7
		C48.6,72.3,48.6,72.1,48.7,71.9z"/>
	<path class="st1" d="M42.8,74.7c0.2-0.5,0.4-0.9,0.6-1.4c-0.3,0.1-0.5,0.2-0.7,0.3c-0.2,0.1-0.5,0.2-0.7,0.3
		C42.3,74.1,42.6,74.4,42.8,74.7z M44.8,71.9c-0.1,0.6-0.4,1.1-0.6,1.7s-0.4,1.1-0.6,1.7c-0.2,0.6-0.4,1.1-0.7,1.7
		c-0.3-0.3-0.5-0.5-0.8-0.8c0.1-0.2,0.1-0.3,0.2-0.4s0-0.2-0.1-0.4c-0.4-0.4-0.8-0.8-1.2-1.2c-0.2,0.1-0.4,0.2-0.7,0.3
		c-0.2-0.2-0.4-0.5-0.7-0.7c0.8-0.3,1.6-0.7,2.4-1C43.1,72.5,43.9,72.2,44.8,71.9C44.8,71.9,44.8,71.9,44.8,71.9z"/>
	<path class="st1" d="M51,80.9c-0.1,0-0.1,0-0.1,0c-0.4,0.2-0.8,0.3-1.1,0.5c0,0-0.1,0.1-0.2,0.1c0.3,0.2,0.5,0.5,0.8,0.8
		C50.6,81.8,50.8,81.4,51,80.9 M48,82.1c-0.2-0.2-0.4-0.5-0.7-0.7c0.2-0.1,0.5-0.2,0.7-0.3c0.7-0.3,1.3-0.5,2-0.8
		c0.7-0.3,1.4-0.6,2.1-0.8c0.1,0,0.1,0,0.2,0c0,0.5-0.3,0.9-0.4,1.3c-0.1,0.4-0.3,0.9-0.5,1.3c-0.2,0.4-0.3,0.8-0.5,1.3
		c-0.2,0.4-0.3,0.8-0.5,1.3c-0.2-0.3-0.5-0.5-0.7-0.8c0.1-0.2,0.1-0.4,0.2-0.6c-0.4-0.4-0.8-0.8-1.2-1.2c-0.1-0.1-0.2-0.1-0.3-0.1
		C48.4,82,48.2,82,48,82.1"/>
	<path class="st1" d="M2.9,34.8c0.3,0.3,0.5,0.5,0.8,0.8c0.2-0.5,0.4-0.9,0.6-1.4C3.9,34.4,3.4,34.6,2.9,34.8z M0.7,34.7
		c0.5-0.2,0.9-0.3,1.3-0.5c1.1-0.4,2.3-0.9,3.4-1.3c0.1,0,0.3-0.1,0.4-0.1c-0.7,1.7-1.3,3.4-1.9,5.1c-0.3-0.3-0.5-0.5-0.8-0.7
		c0.1-0.2,0.2-0.4,0.3-0.7c-0.4-0.4-0.9-0.9-1.3-1.3c-0.2,0.1-0.4,0.2-0.6,0.3C1.2,35.2,1,35,0.7,34.7z"/>
	<path class="st1" d="M18.9,38.7c-0.5,0.2-1,0.4-1.4,0.6c0.3,0.3,0.5,0.5,0.8,0.8C18.5,39.6,18.7,39.2,18.9,38.7z M20.3,37.3
		c-0.7,1.8-1.3,3.4-1.9,5.1c-0.2-0.2-0.5-0.5-0.8-0.8c0.1-0.1,0.1-0.4,0.2-0.5c-0.4-0.4-0.9-0.9-1.3-1.3c-0.2,0.1-0.4,0.2-0.6,0.2
		c-0.2-0.2-0.4-0.5-0.7-0.7c0.5-0.2,1.1-0.4,1.6-0.7c0.6-0.2,1.1-0.5,1.7-0.7S19.7,37.4,20.3,37.3"/>
	<path class="st1" d="M13.6,37.7c0.9-0.9,1.9-1.9,2.8-2.8c-0.3-0.3-0.6-0.6-1-1c0.2-0.2,0.4-0.4,0.6-0.6c0.9,0.9,1.8,1.8,2.7,2.7
		c-0.2,0.2-0.4,0.4-0.7,0.6c-0.3-0.3-0.6-0.6-0.9-0.9c-0.9,0.9-1.9,1.9-2.8,2.8C14.1,38.2,13.9,38,13.6,37.7"/>
	<path class="st1" d="M56.1,73.3c0.9,0.9,1.8,1.8,2.6,2.7c-0.2,0.2-0.4,0.4-0.6,0.6c-0.3-0.3-0.6-0.6-0.9-1c-1,1-1.9,1.9-2.9,2.9
		c-0.2-0.2-0.5-0.5-0.7-0.7c1-0.9,1.9-1.9,2.8-2.8c-0.3-0.3-0.7-0.7-1-1C55.7,73.7,55.9,73.5,56.1,73.3z"/>
	<path class="st1" d="M13.4,31.8c-0.4-0.4-0.7-0.6-1-1c0.2-0.2,0.4-0.4,0.5-0.5c0.1-0.1,0.2-0.1,0.3,0c0,0,0.1,0.1,0.1,0.1
		c0.8,0.8,1.6,1.6,2.3,2.3c0,0,0.1,0.1,0.1,0.2c-0.2,0.2-0.4,0.4-0.7,0.6c-0.3-0.3-0.6-0.6-0.9-0.9c-0.3,0.2-0.5,0.5-0.7,0.7
		c-0.2,0.2-0.5,0.5-0.7,0.7c-0.2,0.2-0.4,0.5-0.7,0.7c-0.2,0.2-0.4,0.5-0.7,0.7c-0.3-0.2-0.5-0.5-0.8-0.7
		C11.5,33.7,12.4,32.8,13.4,31.8z"/>
	<path class="st1" d="M39,73c-0.3-0.3-0.5-0.5-0.7-0.8c0.9-0.9,1.8-1.8,2.8-2.8c-0.3-0.3-0.6-0.6-1-1c0.2-0.2,0.4-0.4,0.6-0.6
		c0.9,0.9,1.8,1.8,2.7,2.7c-0.2,0.2-0.4,0.4-0.7,0.6c-0.3-0.3-0.6-0.6-0.9-1C40.8,71.1,39.9,72,39,73"/>
	<path class="st1" d="M9,43c-0.3-0.2-0.5-0.5-0.7-0.7c0.9-0.9,1.9-1.8,2.8-2.8c-0.3-0.3-0.6-0.6-1-1c0.2-0.2,0.4-0.4,0.6-0.6
		c0.9,0.9,1.8,1.8,2.6,2.7c-0.2,0.2-0.4,0.4-0.6,0.6c-0.3-0.3-0.6-0.6-0.9-0.9C10.9,41.2,10,42.1,9,43"/>
	<path class="st1" d="M35.2,69.1c0.9-0.9,1.8-1.8,2.8-2.8c-0.3-0.3-0.7-0.7-1-1c0.2-0.2,0.3-0.4,0.5-0.5c0.1-0.1,0.2-0.1,0.3,0
		c0,0,0,0,0.1,0.1c0.8,0.8,1.6,1.6,2.4,2.4c0,0,0.1,0.1,0.1,0.1c-0.2,0.2-0.4,0.4-0.7,0.6c-0.3-0.3-0.6-0.6-1-1
		c-0.9,0.9-1.9,1.9-2.8,2.8C35.6,69.6,35.4,69.4,35.2,69.1"/>
	<path class="st1" d="M40.8,57.9c0.2,0.2,0.5,0.4,0.7,0.7c-0.9,1-1.9,1.9-2.8,2.8c0.5,0.5,1,1,1.6,1.6c-0.2,0.2-0.4,0.4-0.7,0.6
		c-0.7-0.7-1.5-1.5-2.2-2.2C38.5,60.2,39.6,59.1,40.8,57.9"/>
	<path class="st1" d="M22.7,55.5c0.5,0.5,1.1,1,1.6,1.5c-0.2,0.2-0.4,0.4-0.6,0.6c-0.7-0.7-1.5-1.5-2.3-2.2c1.1-1.2,2.3-2.3,3.5-3.5
		c0.2,0.3,0.5,0.5,0.7,0.8C24.7,53.6,23.7,54.6,22.7,55.5"/>
	<path class="st1" d="M43.5,60.7c0.3,0.2,0.5,0.5,0.7,0.7c-1.2,1.2-2.3,2.3-3.5,3.5c-0.2-0.2-0.4-0.4-0.7-0.7
		c0.5-0.6,1.1-1.2,1.7-1.7C42.4,61.8,42.9,61.3,43.5,60.7z"/>
	<path class="st1" d="M28.4,55.5c-1.2,1.2-2.3,2.3-3.5,3.5c-0.3-0.2-0.5-0.5-0.7-0.7c0.1-0.2,2.9-3,3.5-3.5
		C27.9,55,28.1,55.3,28.4,55.5z"/>
	<path class="st1" d="M86.1,48.5c0,0,0.1,0,0.1,0C86.2,48.5,86.1,48.6,86.1,48.5C86.1,48.6,86.1,48.5,86.1,48.5z"/>
	<path class="st1" d="M86.2,1.1h-0.1c0,0,0-0.1,0-0.1C86.1,1,86.2,1.1,86.2,1.1z"/>
	<path class="st1" d="M22.4,13.7C22.4,13.7,22.3,13.6,22.4,13.7c0-0.1,0-0.1,0-0.1C22.4,13.6,22.4,13.6,22.4,13.7"/>
	<path class="st1" d="M86.2,26.1C86.2,26.1,86.1,26.1,86.2,26.1C86.1,26.1,86.1,26.1,86.2,26.1C86.1,26.1,86.1,26.1,86.2,26.1z"/>
	<path class="st1" d="M49.3,37.8C49.3,37.8,49.3,37.9,49.3,37.8C49.2,37.9,49.2,37.9,49.3,37.8C49.2,37.9,49.2,37.9,49.3,37.8z"/>
	<path class="st1" d="M24.2,37.8C24.2,37.8,24.2,37.9,24.2,37.8C24.2,37.9,24.2,37.9,24.2,37.8C24.2,37.9,24.2,37.9,24.2,37.8"/>
</g>
</svg>
